<svg width="25" height="28" viewBox="0 0 25 30" fill="none" xmlns="http://www.w3.org/2000/svg">
<path d="M12.1902 21.5021C12.1902 21.5021 5.90234 13.8491 5.90234 10.6053C5.90234 9.83389 6.06606 9.07081 6.37962 8.36044C6.69318 7.65008 7.15935 7.00076 7.74207 6.45689C8.32479 5.91302 9.0185 5.48014 9.78159 5.18601C10.5447 4.89187 11.3633 4.73926 12.1874 4.73926C13.0115 4.73926 13.8301 4.89187 14.5932 5.18601C15.3563 5.48014 16.05 5.91302 16.6327 6.45689C17.2154 7.00076 17.6788 7.64731 17.9952 8.36044C18.3115 9.07358 18.4724 9.83666 18.4724 10.6053C18.4724 13.8491 12.1846 21.5021 12.1846 21.5021H12.1902ZM12.1902 12.2813C12.6674 12.2813 13.1225 12.1037 13.461 11.7902C13.7968 11.4766 13.9883 11.0493 13.9883 10.6053C13.9883 10.1613 13.7996 9.73399 13.461 9.42043C13.1253 9.10688 12.6674 8.92929 12.1902 8.92929C11.7129 8.92929 11.2578 9.10688 10.9193 9.42043C10.5835 9.73399 10.3921 10.1613 10.3921 10.6053C10.3921 11.0493 10.5807 11.4766 10.9193 11.7902C11.255 12.1037 11.7129 12.2813 12.1902 12.2813Z" fill="#8DC63F"/>
<path d="M11.793 28.135V22.2939H8.45482V28.135H11.793Z" fill="#8DC63F"/>
<path opacity="0.5" d="M7.56641 28.135V22.2939H4.22826V28.135H7.56641Z" fill="#8DC63F"/>
<path opacity="0.2" d="M24.4707 28.135V22.2939H21.1326V28.135H24.4707Z" fill="#8DC63F"/>
<path d="M16.0195 28.135V22.2939H12.6814V28.135H16.0195Z" fill="#8DC63F"/>
<path opacity="0.5" d="M20.2441 28.135V22.2939H16.906V28.135H20.2441Z" fill="#8DC63F"/>
<path opacity="0.2" d="M3.33789 28.135L3.33789 22.2939H-0.000257969L-0.000257969 28.135H3.33789Z" fill="#8DC63F"/>
</svg>
