<svg width="49" height="49" viewBox="0 0 49 49" fill="none" xmlns="http://www.w3.org/2000/svg">
<path d="M34.8105 41.405C32.8096 43.3446 30.625 43.0383 28.5221 42.1196C26.2967 41.1804 24.255 41.1396 21.9071 42.1196C18.9671 43.3854 17.4155 43.0179 15.6596 41.405C5.6963 31.1354 7.1663 15.4963 18.4771 14.9246C21.2334 15.0675 23.1525 16.4354 24.7655 16.5579C27.1746 16.0679 29.4817 14.6592 32.0542 14.8429C35.1371 15.0879 37.4646 16.3129 38.9959 18.5179C32.6259 22.3358 34.1367 30.7271 39.9759 33.075C38.8121 36.1375 37.3013 39.1796 34.7901 41.4254L34.8105 41.405ZM24.5613 14.8021C24.255 10.2492 27.9505 6.4925 32.1971 6.125C32.7892 11.3925 27.4196 15.3125 24.5613 14.8021Z" fill="black"/>
</svg>
