<svg width="111" height="111" viewBox="0 0 111 111" fill="none" xmlns="http://www.w3.org/2000/svg">
<path d="M45.4891 19.8703C45.5758 20.401 45.3122 20.8416 44.4276 21.2856C42.6343 20.5698 40.6947 20.2973 38.7736 20.4912C36.564 20.6681 34.7082 21.3758 34.9579 22.8777C35.3048 24.3797 37.4312 25.2642 41.2294 24.9104C50.5049 24.1161 50.4182 17.8411 64.0226 16.6062C74.6231 15.635 80.5443 18.9025 81.3386 22.8777C81.956 25.9684 79.3961 28.9723 71.7093 29.5932C64.9071 30.2107 60.9319 28.3549 60.5781 26.5026C60.4012 25.5313 60.925 24.1161 64.1995 23.7623C64.5464 25.2642 66.4091 26.8529 70.8248 26.4124C74.0265 26.1418 76.6592 24.9763 76.3124 23.242C75.9655 21.3862 72.6008 20.3282 67.2936 20.7687C56.5162 21.74 53.8661 27.6611 44.6774 28.4555C38.1561 29.0556 32.8559 26.6725 32.1482 23.1379C31.8846 21.8128 31.8846 18.7222 38.7736 18.1013C42.3082 17.8376 45.1353 18.4516 45.4891 19.8703ZM11.034 56.7986C8.16989 60.3304 6.72203 64.8014 6.97206 69.3416C7.11706 71.4159 7.70439 73.4351 8.69458 75.2635C9.68478 77.0919 11.0549 78.6872 12.7128 79.9421C14.3285 81.2411 16.2147 82.1615 18.2328 82.6357C20.251 83.1099 22.3497 83.1259 24.3748 82.6824C26.1471 82.248 27.8859 81.6869 29.5779 81.0036C26.0778 80.9984 22.6943 79.7451 20.0354 77.4689C18.4109 76.3381 17.0383 74.8829 16.0043 73.1952C14.9702 71.5074 14.2972 69.6236 14.0275 67.6628C13.6382 65.8722 13.6266 64.0201 13.9933 62.2247C14.36 60.4294 15.097 58.7302 16.1573 57.2357C17.3131 55.7679 18.7548 54.5499 20.395 53.6556C22.0353 52.7612 23.84 52.2091 25.6998 52.0326C29.682 51.7521 33.6323 52.9118 36.8311 55.3001C35.9194 54.213 34.9143 53.2078 33.8271 52.2962C32.1287 51.0282 30.1683 50.1558 28.0894 49.7429C26.0104 49.33 23.8655 49.387 21.8114 49.9097C17.4975 50.8133 13.6637 53.2616 11.034 56.7986ZM58.3893 36.3885C48.6861 36.4636 39.0006 35.5453 29.4843 33.6482C21.6345 31.7057 17.4824 29.5863 17.4824 26.8495C17.4824 25.7013 18.0131 24.73 19.6018 23.5819C14.6553 25.5244 12.0052 27.1165 12.0052 29.5898C12.2688 32.3301 16.688 35.0669 25.6998 37.1863C36.3383 39.5647 47.2231 40.6616 58.1223 40.4539C69.0184 40.6742 79.9013 39.5771 90.5342 37.1863C99.553 35.0669 103.875 32.2399 103.875 29.5898C103.875 27.6473 101.933 25.7741 98.3979 24.3866C98.8095 24.64 99.1533 24.9896 99.3999 25.4053C99.6464 25.8211 99.7882 26.2905 99.8132 26.7731C99.8132 29.5135 95.7478 31.7196 87.5338 33.5754C77.9481 35.5567 68.177 36.4998 58.3893 36.3885ZM90.9019 43.9851C80.2493 46.2747 69.3748 47.3707 58.4795 47.2526C47.4972 47.3428 36.5372 46.2472 25.79 43.9851C18.1935 42.0426 14.1281 39.9197 12.7163 37.7136C14.1508 47.0076 17.2033 55.9782 21.7351 64.2183C25.0026 69.1647 28.2737 73.4937 31.5412 78.1765C32.8854 80.7779 33.8947 83.539 34.5452 86.394C36.7502 89.3961 39.944 91.5237 43.5639 92.4019C48.2026 94.0726 53.13 94.7934 58.0529 94.5213H58.5836C63.6438 94.7438 68.7013 94.0251 73.4992 92.4019C76.9837 91.3903 80.0499 89.2838 82.2439 86.394H82.5076C83.0593 83.5472 83.9805 80.7847 85.2479 78.1765C88.5154 73.4937 91.7865 69.1578 95.054 64.2183C99.4954 55.9395 102.539 46.9841 104.062 37.7136C102.297 40.1868 98.2314 42.3201 90.8985 43.9885L90.9019 43.9851Z" fill="#6F4E37"/>
</svg>
