<svg width="46" height="46" viewBox="0 0 46 46" fill="none" xmlns="http://www.w3.org/2000/svg">
<path opacity="0.3" d="M9.73797 15.3322H15.3921C16.0055 12.9364 16.8871 10.6364 18.0371 8.50885C14.5105 9.71635 11.578 12.1505 9.73797 15.3322ZM14.3763 22.9989C14.3763 21.6955 14.4913 20.4305 14.6446 19.1655H8.1663C7.85964 20.3922 7.66797 21.6764 7.66797 22.9989C7.66797 24.3214 7.85964 25.6055 8.1663 26.8322H14.6446C14.4913 25.5672 14.3763 24.3022 14.3763 22.9989ZM9.73797 30.6655C11.5909 33.8664 14.5384 36.2898 18.0371 37.4889C16.8812 35.3305 15.9929 33.0391 15.3921 30.6655H9.73797ZM23.0013 7.74219C21.4105 10.0422 20.1646 12.5914 19.3405 15.3322H26.6621C25.838 12.5914 24.5921 10.0422 23.0013 7.74219ZM36.2646 15.3322C34.4077 12.1347 31.4617 9.71253 27.9655 8.50885C29.1155 10.6364 29.9971 12.9364 30.6105 15.3322H36.2646ZM23.0013 38.2555C24.5921 35.9555 25.838 33.4064 26.6621 30.6655H19.3405C20.1646 33.4064 21.4105 35.9555 23.0013 38.2555ZM27.9655 37.4889C31.4617 36.2852 34.4077 33.863 36.2646 30.6655H30.6105C30.0097 33.0391 29.1214 35.3305 27.9655 37.4889ZM37.8363 19.1655H31.358C31.5113 20.4305 31.6263 21.6955 31.6263 22.9989C31.6263 24.3022 31.5113 25.5672 31.358 26.8322H37.8363C38.143 25.6055 38.3346 24.3214 38.3346 22.9989C38.3346 21.6764 38.143 20.3922 37.8363 19.1655ZM18.5163 19.1655C18.3438 20.4114 18.2096 21.6955 18.2096 22.9989C18.2096 24.3022 18.3438 25.5672 18.5163 26.8322H27.4863C27.6588 25.5672 27.793 24.3022 27.793 22.9989C27.793 21.6955 27.6588 20.4114 27.4863 19.1655H18.5163Z" fill="white" fill-opacity="0.58"/>
<path d="M22.9795 3.83594C12.3995 3.83594 3.83203 12.4226 3.83203 23.0026C3.83203 33.5826 12.3995 42.1693 22.9795 42.1693C33.5787 42.1693 42.1654 33.5826 42.1654 23.0026C42.1654 12.4226 33.5787 3.83594 22.9795 3.83594ZM36.262 15.3359H30.6079C30.0071 12.9624 29.1188 10.671 27.9629 8.5126C31.4591 9.71628 34.4051 12.1384 36.262 15.3359ZM22.9987 7.74594C24.5895 10.0459 25.8354 12.5951 26.6595 15.3359H19.3379C20.162 12.5951 21.4079 10.0459 22.9987 7.74594ZM8.1637 26.8359C7.85703 25.6093 7.66536 24.3251 7.66536 23.0026C7.66536 21.6801 7.85703 20.3959 8.1637 19.1693H14.642C14.4887 20.4343 14.3737 21.6993 14.3737 23.0026C14.3737 24.3059 14.4887 25.5709 14.642 26.8359H8.1637ZM9.73536 30.6693H15.3895C16.0029 33.0651 16.8845 35.3651 18.0345 37.4926C14.5358 36.2935 11.5883 33.8702 9.73536 30.6693ZM15.3895 15.3359H9.73536C11.5883 12.135 14.5358 9.71169 18.0345 8.5126C16.8786 10.671 15.9903 12.9624 15.3895 15.3359ZM22.9987 38.2593C21.4079 35.9593 20.162 33.4101 19.3379 30.6693H26.6595C25.8354 33.4101 24.5895 35.9593 22.9987 38.2593ZM27.4837 26.8359H18.5137C18.3412 25.5709 18.207 24.3059 18.207 23.0026C18.207 21.6993 18.3412 20.4151 18.5137 19.1693H27.4837C27.6562 20.4151 27.7904 21.6993 27.7904 23.0026C27.7904 24.3059 27.6562 25.5709 27.4837 26.8359ZM27.9629 37.4926C29.1129 35.3651 29.9945 33.0651 30.6079 30.6693H36.262C34.4051 33.8668 31.4591 36.2889 27.9629 37.4926ZM31.3554 26.8359C31.5087 25.5709 31.6237 24.3059 31.6237 23.0026C31.6237 21.6993 31.5087 20.4343 31.3554 19.1693H37.8337C38.1404 20.3959 38.332 21.6801 38.332 23.0026C38.332 24.3251 38.1404 25.6093 37.8337 26.8359H31.3554Z" fill="white" fill-opacity="0.58"/>
</svg>
