<svg width="32" height="32" viewBox="0 0 32 32" fill="none" xmlns="http://www.w3.org/2000/svg">
<path d="M26.6654 13.3307C26.6654 19.9881 19.28 26.9214 16.8 29.0627C16.569 29.2365 16.2878 29.3304 15.9987 29.3304C15.7096 29.3304 15.4284 29.2365 15.1974 29.0627C12.7174 26.9214 5.33203 19.9881 5.33203 13.3307C5.33203 10.5018 6.45584 7.78865 8.45623 5.78826C10.4566 3.78787 13.1697 2.66406 15.9987 2.66406C18.8277 2.66406 21.5408 3.78787 23.5412 5.78826C25.5416 7.78865 26.6654 10.5018 26.6654 13.3307Z" stroke="white" stroke-width="2.66667" stroke-linecap="round" stroke-linejoin="round"/>
<path d="M16 17.3359C18.2091 17.3359 20 15.5451 20 13.3359C20 11.1268 18.2091 9.33594 16 9.33594C13.7909 9.33594 12 11.1268 12 13.3359C12 15.5451 13.7909 17.3359 16 17.3359Z" stroke="white" stroke-width="2.66667" stroke-linecap="round" stroke-linejoin="round"/>
</svg>
