<svg width="111" height="112" viewBox="0 0 111 112" fill="none" xmlns="http://www.w3.org/2000/svg">
<g filter="url(#filter0_d_1_18029)">
<path d="M106.5 33.7485C106.5 42.5665 102.997 51.0234 96.7616 57.2587C90.5263 63.494 82.0694 66.9969 73.2514 66.9969C72.4782 66.9969 71.7097 66.9505 70.9458 66.8578C62.958 66.3272 55.4337 62.9178 49.7684 57.2619C44.1031 51.606 40.6812 44.0873 40.1375 36.1005C40.0528 35.3193 40.0079 34.5342 40.0029 33.7485C40.0029 24.9304 43.5059 16.4735 49.7412 10.2383C55.9765 4.00295 64.4334 0.5 73.2514 0.5C82.0694 0.5 90.5263 4.00295 96.7616 10.2383C102.997 16.4735 106.5 24.9304 106.5 33.7485Z" fill="#FFEF5E"/>
<path d="M73.2514 0.500019C64.4334 0.500019 55.9765 4.00297 49.7412 10.2383C43.5059 16.4736 40.0029 24.9304 40.0029 33.7485C40.0029 34.534 40.0478 35.3165 40.1375 36.0959C40.6714 43.9951 44.025 51.4398 49.5873 57.0739L96.5815 10.0844C90.3708 3.93568 81.9817 0.49067 73.2421 0.500019" fill="#FFFAD6"/>
<path d="M70.9552 66.8638C71.4488 73.6307 69.8618 80.3867 66.407 86.2261C62.9522 92.0655 57.7947 96.7091 51.6261 99.5343C45.4574 102.36 38.5724 103.231 31.8943 102.033C25.2161 100.834 19.064 97.6227 14.2628 92.8287C9.46157 88.0347 6.24074 81.8874 5.03215 75.2111C3.82355 68.5348 4.68496 61.6485 7.50089 55.4756C10.3168 49.3027 14.9526 44.1382 20.7868 40.6746C26.621 37.211 33.3746 35.6139 40.1422 36.0973C40.6837 44.085 44.104 51.6053 49.7686 57.263C55.4331 62.9207 62.9575 66.3319 70.9459 66.8638" fill="#FFBC44"/>
<path d="M40.1426 36.0959C33.4065 35.6185 26.6847 37.2037 20.8716 40.6405C15.0585 44.0772 10.4297 49.2026 7.60113 55.3347C4.77256 61.4668 3.8783 68.3149 5.03734 74.9677C6.19639 81.6205 9.35377 87.7627 14.0894 92.577L49.5971 57.0739C44.0331 51.4405 40.6778 43.9957 40.1426 36.0959Z" fill="#FFDDA1"/>
<path d="M106.5 33.7485C106.5 42.5665 102.997 51.0234 96.7616 57.2587C90.5263 63.494 82.0694 66.9969 73.2514 66.9969C72.4782 66.9969 71.7097 66.9505 70.9458 66.8578C62.958 66.3272 55.4337 62.9178 49.7684 57.2619C44.1031 51.606 40.6812 44.0873 40.1375 36.1005C40.0528 35.3193 40.0079 34.5342 40.0029 33.7485C40.0029 24.9304 43.5059 16.4735 49.7412 10.2383C55.9765 4.00295 64.4334 0.5 73.2514 0.5C82.0694 0.5 90.5263 4.00295 96.7616 10.2383C102.997 16.4735 106.5 24.9304 106.5 33.7485Z" stroke="#191919" stroke-linecap="round" stroke-linejoin="round"/>
<path d="M70.9552 66.8638C71.4488 73.6307 69.8618 80.3867 66.407 86.2261C62.9522 92.0655 57.7947 96.7091 51.6261 99.5343C45.4574 102.36 38.5724 103.231 31.8943 102.033C25.2161 100.834 19.064 97.6227 14.2628 92.8287C9.46157 88.0347 6.24074 81.8874 5.03215 75.2111C3.82355 68.5348 4.68496 61.6485 7.50089 55.4756C10.3168 49.3027 14.9526 44.1382 20.7868 40.6746C26.621 37.211 33.3746 35.6139 40.1422 36.0973C40.6837 44.085 44.104 51.6053 49.7686 57.263C55.4331 62.9207 62.9575 66.3319 70.9459 66.8638M35.5959 58.133V53.698" stroke="#191919" stroke-linecap="round" stroke-linejoin="round"/>
<path d="M42.2114 58.1267H33.2301C31.8482 58.1266 30.5094 58.6077 29.4437 59.4874C28.3779 60.3671 27.6518 61.5904 27.39 62.9473C27.1281 64.3041 27.347 65.7098 28.0089 66.9228C28.6708 68.1359 29.7345 69.0806 31.0172 69.5946L40.1655 73.2595C41.4486 73.7737 42.5125 74.7188 43.1744 75.9323C43.8363 77.1458 44.0548 78.552 43.7924 79.9091C43.53 81.2663 42.803 82.4896 41.7364 83.3689C40.6699 84.2482 39.3303 84.7286 37.948 84.7274H28.9157M35.596 89.1624V84.7274M73.2795 20.4479V16.0176M79.8995 20.4479H70.9135C69.5316 20.4478 68.1928 20.9289 67.1271 21.8086C66.0614 22.6882 65.3352 23.9116 65.0734 25.2684C64.8116 26.6253 65.0304 28.031 65.6924 29.244C66.3543 30.4571 67.418 31.4017 68.7007 31.9158L77.849 35.5807C79.1321 36.0949 80.196 37.04 80.8579 38.2535C81.5198 39.467 81.7383 40.8732 81.4758 42.2303C81.2134 43.5875 80.4864 44.8108 79.4199 45.6901C78.3533 46.5694 77.0138 47.0498 75.6315 47.0486H66.5992M73.2795 51.4835V47.0486" stroke="#191919" stroke-linecap="round" stroke-linejoin="round"/>
</g>
<defs>
<filter id="filter0_d_1_18029" x="0" y="0" width="111" height="111.056" filterUnits="userSpaceOnUse" color-interpolation-filters="sRGB">
<feFlood flood-opacity="0" result="BackgroundImageFix"/>
<feColorMatrix in="SourceAlpha" type="matrix" values="0 0 0 0 0 0 0 0 0 0 0 0 0 0 0 0 0 0 127 0" result="hardAlpha"/>
<feOffset dy="4"/>
<feGaussianBlur stdDeviation="2"/>
<feComposite in2="hardAlpha" operator="out"/>
<feColorMatrix type="matrix" values="0 0 0 0 1 0 0 0 0 0.964581 0 0 0 0 0.964581 0 0 0 0.25 0"/>
<feBlend mode="normal" in2="BackgroundImageFix" result="effect1_dropShadow_1_18029"/>
<feBlend mode="normal" in="SourceGraphic" in2="effect1_dropShadow_1_18029" result="shape"/>
</filter>
</defs>
</svg>
