<svg width="120" height="120" viewBox="0 0 120 120" fill="none" xmlns="http://www.w3.org/2000/svg">
<path d="M60.0002 106.665C77.4892 106.665 91.6668 85.772 91.6668 59.9987C91.6668 34.2254 77.4892 13.332 60.0002 13.332C42.5111 13.332 28.3335 34.2254 28.3335 59.9987C28.3335 85.772 42.5111 106.665 60.0002 106.665Z" fill="#A57939"/>
<path fill-rule="evenodd" clip-rule="evenodd" d="M60.5218 106.665C60.4968 106.665 60.4885 106.63 60.5135 106.622C74.3902 101.899 84.7685 82.8554 84.7685 60.0837C84.7685 37.2987 74.3785 18.247 60.4902 13.537C60.3785 13.4987 60.4035 13.332 60.5218 13.332C77.7218 13.332 91.6668 34.2254 91.6668 59.9987C91.6668 85.772 77.7218 106.665 60.5218 106.665Z" fill="#6A462F"/>
<path fill-rule="evenodd" clip-rule="evenodd" d="M60 101.665C60 101.665 50 83.0104 50 59.9987C50 37.0654 59.9333 18.4587 60 18.332C59.9517 18.422 55 27.7154 55 39.1654C55 50.6704 60 59.9987 60 59.9987C60 59.9987 65 69.3254 65 80.832C65 92.3387 60 101.665 60 101.665Z" fill="#6A462F"/>
<path d="M60.0002 101.665L58.5318 102.452C58.6744 102.717 58.8862 102.939 59.1447 103.094C59.4033 103.248 59.6989 103.33 60.0002 103.33C60.3014 103.33 60.5971 103.248 60.8556 103.094C61.1142 102.939 61.326 102.717 61.4685 102.452L60.0002 101.665ZM60.0002 18.3318L61.4702 19.1168C61.6786 18.7269 61.7236 18.2702 61.5953 17.8471C61.467 17.4241 61.1759 17.0693 60.786 16.8609C60.3961 16.6525 59.9394 16.6075 59.5164 16.7358C59.0933 16.8641 58.7386 17.1552 58.5302 17.5451L60.0002 18.3318ZM48.3335 59.9984C48.3335 71.7351 50.8818 82.3351 53.4168 89.9851C54.4348 93.0679 55.6023 96.0992 56.9152 99.0684C57.3863 100.128 57.8836 101.176 58.4068 102.212L58.4968 102.385L58.5202 102.432L58.5285 102.445V102.45L60.0002 101.665C60.9791 101.14 61.4691 100.877 61.4702 100.878L61.4652 100.87L61.4468 100.835L61.3702 100.685C61.3002 100.552 61.1985 100.351 61.0652 100.082C60.6818 99.2994 60.3134 98.5098 59.9602 97.7134C58.6923 94.8444 57.5649 91.9154 56.5818 88.9368C54.1185 81.5051 51.6668 71.2718 51.6668 59.9984H48.3335ZM58.5302 17.5451C58.4252 17.7451 48.3335 36.6451 48.3335 59.9984H51.6668C51.6668 37.4818 61.4402 19.1734 61.4702 19.1184L58.5302 17.5451ZM56.6668 39.1651C56.6668 33.6701 57.8568 28.6668 59.0652 25.0101C60.2702 21.3601 61.4768 19.1034 61.4702 19.1168L58.5302 17.5468C58.4435 17.7068 53.3335 27.2968 53.3335 39.1634L56.6668 39.1651ZM60.0002 59.9984C60.9791 59.4729 61.4691 59.2107 61.4702 59.2118L61.4685 59.2101L61.4618 59.1951L61.2802 58.8384C61.1518 58.5784 60.9668 58.1884 60.7418 57.6834C60.1201 56.2735 59.5661 54.8346 59.0818 53.3718C57.8685 49.7101 56.6668 44.6851 56.6668 39.1651L53.3335 39.1634C53.3335 45.1468 54.6335 50.5401 55.9202 54.4201C56.4383 55.9865 57.0312 57.5271 57.6968 59.0368C57.9392 59.5818 58.1948 60.1209 58.4635 60.6534L58.5135 60.7468C58.5179 60.7579 58.5224 60.7662 58.5268 60.7718L58.5302 60.7801V60.7834L60.0002 59.9984ZM60.0002 59.9984L58.5302 60.7834L58.5318 60.7851L58.5402 60.8018L58.7202 61.1568C58.8485 61.4168 59.0335 61.8068 59.2585 62.3118C59.7085 63.3234 60.3135 64.7984 60.9185 66.6234C62.1318 70.2851 63.3352 75.3101 63.3352 80.8318H66.6685C66.6685 74.8468 65.3685 69.4551 64.0818 65.5751C63.5637 64.0087 62.9708 62.4681 62.3052 60.9584C62.0477 60.382 61.7754 59.8124 61.4885 59.2501L61.4752 59.2234L61.4718 59.2151L61.4702 59.2118L60.0002 59.9984ZM63.3352 80.8318C63.3352 86.3518 62.1318 91.3768 60.9168 95.0384C60.4331 96.5013 59.8797 97.9401 59.2585 99.3501C59.0312 99.8599 58.7911 100.364 58.5385 100.862L58.5318 100.877L60.0002 101.665L61.4685 102.452L61.4702 102.447L61.4752 102.438L61.4902 102.413L61.5385 102.32L61.7102 101.978C61.8552 101.682 62.0602 101.253 62.3035 100.705C62.9697 99.1955 63.5631 97.6548 64.0818 96.0884C65.3685 92.2051 66.6685 86.8151 66.6685 80.8318H63.3352Z" fill="#6A462F"/>
<path d="M60.0002 106.665C77.4892 106.665 91.6668 85.772 91.6668 59.9987C91.6668 34.2254 77.4892 13.332 60.0002 13.332C42.5111 13.332 28.3335 34.2254 28.3335 59.9987C28.3335 85.772 42.5111 106.665 60.0002 106.665Z" stroke="black" stroke-width="0.5"/>
<path d="M60 18.332C60 18.332 55 27.6587 55 39.1654C55 50.672 60 59.9987 60 59.9987C60 59.9987 65 69.3254 65 80.832C65 92.3387 60 101.665 60 101.665" stroke="black" stroke-width="0.5" stroke-linecap="round" stroke-linejoin="round"/>
</svg>
