<svg width="40" height="44" viewBox="0 0 40 44" fill="none" xmlns="http://www.w3.org/2000/svg">
<g clip-path="url(#clip0_1_3906)">
<path d="M18.6805 20.9766L0.166016 40.2783C0.373932 41.0114 0.747564 41.6876 1.25835 42.2551C1.76914 42.8226 2.40356 43.2663 3.11311 43.5524C3.82266 43.8385 4.58856 43.9594 5.35226 43.9059C6.11597 43.8523 6.85725 43.6257 7.51945 43.2434L28.3518 31.4374L18.6805 20.9766Z" fill="#EA4335"/>
<path d="M37.4028 17.697L28.3942 12.5625L18.2539 21.4169L28.4355 31.411L37.3755 26.3315C38.1674 25.9189 38.8308 25.2984 39.2937 24.5374C39.7565 23.7763 40.0012 22.9037 40.0012 22.0142C40.0012 21.1246 39.7565 20.252 39.2937 19.491C38.8308 18.7299 38.1674 18.1095 37.3755 17.6968L37.4028 17.697Z" fill="#FBBC04"/>
<path d="M0.165673 3.65625C0.0538285 4.06794 -0.00187885 4.49273 4.83382e-05 4.91919V39.0195C0.00115273 39.4458 0.0568087 39.8703 0.165673 40.2826L19.3149 21.4752L0.165673 3.65625Z" fill="#4285F4"/>
<path d="M18.8185 21.9649L28.3932 12.5612L7.58852 0.700123C6.80575 0.243985 5.91547 0.00241388 5.00836 9.53546e-06C2.75727 -0.00434382 0.778203 1.48233 0.166016 3.63802L18.8185 21.9649Z" fill="#34A853"/>
</g>
<defs>
<clipPath id="clip0_1_3906">
<rect width="40" height="44" fill="white"/>
</clipPath>
</defs>
</svg>
