<svg width="89" height="63" viewBox="0 0 89 63" fill="none" xmlns="http://www.w3.org/2000/svg">
<g filter="url(#filter0_d_1_18021)">
<path d="M45.4952 4.05638e-05C39.4459 -0.0101547 31.8674 1.90147 24.3909 5.79268C16.9262 9.68389 11.0095 14.7815 7.53632 19.7603C4.06141 24.722 3.12175 29.3438 4.83116 32.6403C6.54227 35.9198 10.8685 37.806 16.933 37.806C22.9975 37.8229 30.576 35.9028 38.0356 32.0286C45.5122 28.1374 51.4254 23.0228 54.8918 18.061C58.3752 13.0993 59.2928 8.47744 57.5936 5.18096C55.8774 1.90147 51.5614 4.05638e-05 45.4952 4.05638e-05ZM61.111 11.9438C60.5163 14.5437 59.2248 17.2114 57.4067 19.8112C53.5665 25.2997 47.2963 30.6522 39.4459 34.7304C31.5956 38.8255 23.6262 40.8815 16.9313 40.8815C13.7708 40.8815 10.8413 40.4058 8.37233 39.4032L10.1718 42.8696C11.8846 46.1661 16.1989 48.0522 22.2668 48.0522C28.3331 48.0522 35.9116 46.1491 43.3711 42.2579C50.8477 38.3837 56.761 33.269 60.2274 28.2903C63.6938 23.3286 64.6454 18.7067 62.9291 15.4272L61.111 11.9438ZM66.0047 14.7985C67.9079 19.3355 66.3786 24.8579 62.7422 30.0405C59.5307 34.6454 54.62 39.1144 48.5368 42.8526C50.4229 43.0565 52.394 43.1585 54.3991 43.1585C62.8102 43.1585 70.4227 41.3573 75.7922 38.5536C81.1788 35.7499 84.1354 32.0796 84.1354 28.3753C84.1354 24.671 81.1788 21.0007 75.7922 18.197C73.0565 16.7696 69.726 15.5972 66.0047 14.7985ZM84.1354 36.0048C82.4022 38.0269 80.0233 39.811 77.2196 41.2724C71.2723 44.3649 63.252 46.2171 54.3991 46.2171C50.7967 46.2171 47.3303 45.9112 44.0848 45.3335C40.1426 47.3216 36.1834 48.7999 32.3772 49.7685C32.5811 49.8874 32.785 49.9894 33.0059 50.1083C38.3754 52.912 45.9879 54.7132 54.3991 54.7132C62.8102 54.7132 70.4227 52.912 75.7922 50.1083C81.1788 47.3046 84.1354 43.6343 84.1354 39.93V36.0048Z" fill="#F0B100"/>
</g>
<defs>
<filter id="filter0_d_1_18021" x="0" y="0" width="88.1353" height="62.7129" filterUnits="userSpaceOnUse" color-interpolation-filters="sRGB">
<feFlood flood-opacity="0" result="BackgroundImageFix"/>
<feColorMatrix in="SourceAlpha" type="matrix" values="0 0 0 0 0 0 0 0 0 0 0 0 0 0 0 0 0 0 127 0" result="hardAlpha"/>
<feOffset dy="4"/>
<feGaussianBlur stdDeviation="2"/>
<feComposite in2="hardAlpha" operator="out"/>
<feColorMatrix type="matrix" values="0 0 0 0 1 0 0 0 0 0.978572 0 0 0 0 0.978572 0 0 0 0.25 0"/>
<feBlend mode="normal" in2="BackgroundImageFix" result="effect1_dropShadow_1_18021"/>
<feBlend mode="normal" in="SourceGraphic" in2="effect1_dropShadow_1_18021" result="shape"/>
</filter>
</defs>
</svg>
