<svg width="105" height="105" viewBox="0 0 105 105" fill="none" xmlns="http://www.w3.org/2000/svg">
<path d="M3.28125 32.8125H45.9375L49.2188 39.375H6.5625L3.28125 32.8125ZM7.65625 45.9375H50.3125L53.5938 52.5H10.9375L7.65625 45.9375ZM78.75 80.9375C82.3812 80.9375 85.3125 78.0062 85.3125 74.375C85.3125 70.7438 82.3812 67.8125 78.75 67.8125C75.1188 67.8125 72.1875 70.7438 72.1875 74.375C72.1875 78.0062 75.1188 80.9375 78.75 80.9375ZM85.3125 41.5625H74.375V52.5H93.8875L85.3125 41.5625ZM35 80.9375C38.6312 80.9375 41.5625 78.0062 41.5625 74.375C41.5625 70.7438 38.6312 67.8125 35 67.8125C31.3688 67.8125 28.4375 70.7438 28.4375 74.375C28.4375 78.0062 31.3688 80.9375 35 80.9375ZM87.5 35L100.625 52.5V74.375H91.875C91.875 81.6375 86.0125 87.5 78.75 87.5C71.4875 87.5 65.625 81.6375 65.625 74.375H48.125C48.125 81.6375 42.2188 87.5 35 87.5C27.7375 87.5 21.875 81.6375 21.875 74.375H13.125V59.0625H21.875V65.625H25.2C27.6063 62.9562 31.1063 61.25 35 61.25C38.8937 61.25 42.3937 62.9562 44.8 65.625H65.625V26.25H13.125C13.125 21.3937 17.0187 17.5 21.875 17.5H74.375V35H87.5Z" fill="white"/>
</svg>
